<svg width="126" height="408" viewBox="0 0 126 408" fill="none" xmlns="http://www.w3.org/2000/svg">
<g clip-path="url(#clip0_441_3924)">
<rect width="126" height="8" fill="white" fill-opacity="0.08"/>
<rect y="16" width="126" height="8" fill="white" fill-opacity="0.08"/>
<rect y="32" width="126" height="8" fill="white" fill-opacity="0.08"/>
<rect y="48" width="126" height="8" fill="white" fill-opacity="0.08"/>
<rect y="64" width="126" height="8" fill="white" fill-opacity="0.08"/>
<rect y="80" width="126" height="8" fill="white" fill-opacity="0.08"/>
<rect y="96" width="126" height="8" fill="white" fill-opacity="0.08"/>
<rect y="112" width="126" height="8" fill="white" fill-opacity="0.08"/>
<rect y="128" width="126" height="8" fill="white" fill-opacity="0.08"/>
<rect y="144" width="126" height="8" fill="white" fill-opacity="0.08"/>
<rect y="160" width="126" height="8" fill="white" fill-opacity="0.08"/>
<rect y="176" width="126" height="8" fill="white" fill-opacity="0.08"/>
<rect y="192" width="126" height="8" fill="white" fill-opacity="0.08"/>
<rect y="208" width="126" height="8" fill="white" fill-opacity="0.08"/>
<rect y="224" width="126" height="8" fill="white" fill-opacity="0.08"/>
<rect y="240" width="126" height="8" fill="white" fill-opacity="0.08"/>
<rect y="256" width="126" height="8" fill="white" fill-opacity="0.08"/>
<rect y="272" width="126" height="8" fill="white" fill-opacity="0.08"/>
<rect y="288" width="126" height="8" fill="white" fill-opacity="0.08"/>
<rect y="304" width="126" height="8" fill="white" fill-opacity="0.08"/>
<rect y="320" width="126" height="8" fill="white" fill-opacity="0.08"/>
<rect y="336" width="126" height="8" fill="white" fill-opacity="0.08"/>
<rect y="352" width="126" height="8" fill="white" fill-opacity="0.08"/>
<rect y="368" width="126" height="8" fill="white" fill-opacity="0.08"/>
<rect y="384" width="126" height="8" fill="white" fill-opacity="0.08"/>
<rect y="400" width="126" height="8" fill="white" fill-opacity="0.08"/>
</g>
<defs>
<clipPath id="clip0_441_3924">
<rect width="126" height="408" fill="white"/>
</clipPath>
</defs>
</svg>
