<svg width="56" height="56" viewBox="0 0 56 56" fill="none" xmlns="http://www.w3.org/2000/svg">
<path d="M54.4502 0C55.1336 0 55.6884 0.553941 55.6885 1.2373V54.7627C55.6884 55.4461 55.1336 56 54.4502 56H1.2373C0.554011 55.9999 0.000113565 55.446 0 54.7627V1.2373C0.000113621 0.554011 0.554011 0.000113573 1.2373 0H54.4502ZM49.2168 19.0205C35.364 22.3681 27.9494 22.2611 27.9238 22.2607C27.8761 22.2614 20.4631 22.3631 6.63086 19.0205L6.82031 21.2861C6.84639 21.2974 10.9207 23.0495 17.4287 24.1602V45.7373C17.4355 45.7588 17.988 47.5078 19.0381 47.5078C20.0772 47.5077 20.4917 47.1796 20.5049 47.1689V24.6006C22.9666 24.8973 25.4443 25.0472 27.9238 25.0479C30.4025 25.0466 32.8791 24.8966 35.3398 24.5996V47.1621C35.3484 47.169 35.766 47.501 36.8076 47.501C37.8543 47.5009 38.4108 45.7499 38.417 45.7305V24.1543C44.9376 23.0414 49.0153 21.2856 49.0254 21.2812L49.2168 19.0205ZM18.9688 9.82812C17.4469 9.82812 17.4289 10.8219 17.4287 10.8447V19.0195H20.5078V10.8828C20.5078 10.8828 20.5081 9.8282 18.9688 9.82812ZM36.8809 9.82812C35.3413 9.82812 35.3408 10.8828 35.3408 10.8828V19.0127H38.4199V10.8447C38.4197 10.8218 38.4023 9.82826 36.8809 9.82812Z" fill="white"/>
</svg>
