<svg width="225" height="56" viewBox="0 0 225 56" fill="none" xmlns="http://www.w3.org/2000/svg">
<mask id="mask0_427_2030" style="mask-type:luminance" maskUnits="userSpaceOnUse" x="0" y="0" width="56" height="56">
<path d="M55.6882 0H0V56H55.6882V0Z" fill="white"/>
</mask>
<g mask="url(#mask0_427_2030)">
<path d="M54.4502 0C55.1336 0 55.6884 0.553941 55.6885 1.2373V54.7627C55.6884 55.4461 55.1336 56 54.4502 56H1.2373C0.554011 55.9999 0.000113565 55.446 0 54.7627V1.2373C0.000113621 0.554011 0.554011 0.000113573 1.2373 0H54.4502ZM49.2168 19.0205C35.364 22.3681 27.9494 22.2611 27.9238 22.2607C27.8761 22.2614 20.4631 22.3631 6.63086 19.0205L6.82031 21.2861C6.84639 21.2974 10.9207 23.0495 17.4287 24.1602V45.7373C17.4355 45.7588 17.988 47.5078 19.0381 47.5078C20.0772 47.5077 20.4917 47.1796 20.5049 47.1689V24.6006C22.9666 24.8973 25.4443 25.0472 27.9238 25.0479C30.4025 25.0466 32.8791 24.8966 35.3398 24.5996V47.1621C35.3484 47.169 35.766 47.501 36.8076 47.501C37.8543 47.5009 38.4108 45.7499 38.417 45.7305V24.1543C44.9376 23.0414 49.0153 21.2856 49.0254 21.2812L49.2168 19.0205ZM18.9688 9.82812C17.4469 9.82812 17.4289 10.8219 17.4287 10.8447V19.0195H20.5078V10.8828C20.5078 10.8828 20.5081 9.8282 18.9688 9.82812ZM36.8809 9.82812C35.3413 9.82812 35.3408 10.8828 35.3408 10.8828V19.0127H38.4199V10.8447C38.4197 10.8218 38.4023 9.82826 36.8809 9.82812Z" fill="white"/>
</g>
<path d="M67.9351 43.3766V16.3762H73.6437V27.5165H85.2322V16.3762H90.9276V43.3766H85.2322V32.2231H73.6437V43.3766H67.9351ZM119.147 29.8764C119.147 32.8208 118.588 35.3257 117.472 37.3911C116.365 39.4566 114.853 41.0343 112.937 42.1241C111.03 43.2052 108.885 43.7457 106.503 43.7457C104.104 43.7457 101.951 43.2008 100.043 42.1109C98.1361 41.0211 96.6287 39.4434 95.5213 37.378C94.4139 35.3125 93.8601 32.812 93.8601 29.8764C93.8601 26.932 94.4139 24.4271 95.5213 22.3617C96.6287 20.2962 98.1361 18.7229 100.043 17.6419C101.951 16.552 104.104 16.0071 106.503 16.0071C108.885 16.0071 111.03 16.552 112.937 17.6419C114.853 18.7229 116.365 20.2962 117.472 22.3617C118.588 24.4271 119.147 26.932 119.147 29.8764ZM113.359 29.8764C113.359 27.9692 113.073 26.3607 112.502 25.0511C111.939 23.7416 111.144 22.7484 110.116 22.0716C109.087 21.3949 107.883 21.0565 106.503 21.0565C105.123 21.0565 103.919 21.3949 102.891 22.0716C101.863 22.7484 101.063 23.7416 100.492 25.0511C99.9291 26.3607 99.6478 27.9692 99.6478 29.8764C99.6478 31.7837 99.9291 33.3921 100.492 34.7017C101.063 36.0112 101.863 37.0044 102.891 37.6812C103.919 38.3579 105.123 38.6963 106.503 38.6963C107.883 38.6963 109.087 38.3579 110.116 37.6812C111.144 37.0044 111.939 36.0112 112.502 34.7017C113.073 33.3921 113.359 31.7837 113.359 29.8764ZM122.076 43.3766V16.3762H127.784V28.2812H128.14L137.857 16.3762H144.699L134.68 28.4657L144.818 43.3766H137.989L130.593 32.2758L127.784 35.7036V43.3766H122.076ZM169.662 29.8764C169.662 32.8208 169.104 35.3257 167.988 37.3911C166.88 39.4566 165.368 41.0343 163.452 42.1241C161.545 43.2052 159.4 43.7457 157.019 43.7457C154.619 43.7457 152.466 43.2008 150.559 42.1109C148.651 41.0211 147.144 39.4434 146.037 37.378C144.929 35.3125 144.375 32.812 144.375 29.8764C144.375 26.932 144.929 24.4271 146.037 22.3617C147.144 20.2962 148.651 18.7229 150.559 17.6419C152.466 16.552 154.619 16.0071 157.019 16.0071C159.4 16.0071 161.545 16.552 163.452 17.6419C165.368 18.7229 166.88 20.2962 167.988 22.3617C169.104 24.4271 169.662 26.932 169.662 29.8764ZM163.874 29.8764C163.874 27.9692 163.589 26.3607 163.017 25.0511C162.455 23.7416 161.659 22.7484 160.631 22.0716C159.603 21.3949 158.399 21.0565 157.019 21.0565C155.639 21.0565 154.435 21.3949 153.406 22.0716C152.378 22.7484 151.578 23.7416 151.007 25.0511C150.444 26.3607 150.163 27.9692 150.163 29.8764C150.163 31.7837 150.444 33.3921 151.007 34.7017C151.578 36.0112 152.378 37.0044 153.406 37.6812C154.435 38.3579 155.639 38.6963 157.019 38.6963C158.399 38.6963 159.603 38.3579 160.631 37.6812C161.659 37.0044 162.455 36.0112 163.017 34.7017C163.589 33.3921 163.874 31.7837 163.874 29.8764ZM172.591 43.3766V16.3762H178.3V27.5165H189.888V16.3762H195.584V43.3766H189.888V32.2231H178.3V43.3766H172.591ZM203.645 43.3766H197.527L206.848 16.3762H214.205L223.513 43.3766H217.395L210.632 22.5462H210.421L203.645 43.3766ZM203.262 32.7636H217.712V37.2198H203.262V32.7636Z" fill="white"/>
</svg>
