<svg width="1916" height="674" viewBox="0 0 1916 674" fill="none" xmlns="http://www.w3.org/2000/svg" style="position:absolute ; filter:blur(10px)">
    <circle cx="480.5" cy="136.5" r="12.5" fill="#3AB6FF"/>
    <path d="M474 142L605.5 1.5" stroke="#3AB6FF" stroke-width="6"/>
    <circle cx="652.5" cy="460.5" r="12.5" fill="#3AB6FF"/>
    <path d="M410.5 1.5L651.5 461L871.5 294.5L947 2.5" stroke="#3AB6FF" stroke-width="6"/>
    <circle cx="812.5" cy="39.5" r="12.5" fill="#3AB6FF"/>
    <circle cx="63.5" cy="51.5" r="12.5" fill="#3AB6FF"/>
    <circle cx="925.5" cy="90.5" r="12.5" fill="#3AB6FF"/>
    <circle cx="677.5" cy="97.5" r="12.5" fill="#3AB6FF"/>
    <path d="M655 461.5L670.5 252.5M670.5 252.5L679 100.5M670.5 252.5L927 93.5L815.5 40.5M670.5 252.5L481 136.5L679 100.5M679 100.5L815.5 40.5M874 290L815.5 40.5M815.5 40.5L670.5 1.5" stroke="#3AB6FF" stroke-width="6"/>
    <rect x="0.5" y="0.5" width="1915" height="673" stroke="transparent"/>
</svg>
