<svg width="225" height="56" viewBox="0 0 225 56" fill="none" xmlns="http://www.w3.org/2000/svg">
<mask id="mask0_714_3952" style="mask-type:luminance" maskUnits="userSpaceOnUse" x="0" y="0" width="56" height="56">
<path d="M55.6882 0H0V56H55.6882V0Z" fill="white"/>
</mask>
<g mask="url(#mask0_714_3952)">
<path d="M54.4502 0C55.1336 0 55.6884 0.553941 55.6885 1.2373V54.7627C55.6884 55.4461 55.1336 56 54.4502 56H1.2373C0.554011 55.9999 0.000113565 55.446 0 54.7627V1.2373C0.000113621 0.554011 0.554011 0.000113573 1.2373 0H54.4502ZM49.2168 19.0205C35.364 22.3681 27.9494 22.2611 27.9238 22.2607C27.8761 22.2614 20.4631 22.3631 6.63086 19.0205L6.82031 21.2861C6.84639 21.2974 10.9207 23.0495 17.4287 24.1602V45.7373C17.4355 45.7588 17.988 47.5078 19.0381 47.5078C20.0772 47.5077 20.4917 47.1796 20.5049 47.1689V24.6006C22.9666 24.8973 25.4443 25.0472 27.9238 25.0479C30.4025 25.0466 32.8791 24.8966 35.3398 24.5996V47.1621C35.3484 47.169 35.766 47.501 36.8076 47.501C37.8543 47.5009 38.4108 45.7499 38.417 45.7305V24.1543C44.9376 23.0414 49.0153 21.2856 49.0254 21.2812L49.2168 19.0205ZM18.9688 9.82812C17.4469 9.82812 17.4289 10.8219 17.4287 10.8447V19.0195H20.5078V10.8828C20.5078 10.8828 20.5081 9.8282 18.9688 9.82812ZM36.8809 9.82812C35.3413 9.82812 35.3408 10.8828 35.3408 10.8828V19.0127H38.4199V10.8447C38.4197 10.8218 38.4023 9.82826 36.8809 9.82812Z" fill="#172230"/>
</g>
<path d="M67.9351 43.3768V16.3764H73.6437V27.5167H85.2322V16.3764H90.9276V43.3768H85.2322V32.2233H73.6437V43.3768H67.9351ZM119.147 29.8766C119.147 32.821 118.588 35.3259 117.472 37.3913C116.365 39.4568 114.853 41.0345 112.937 42.1243C111.03 43.2054 108.885 43.7459 106.503 43.7459C104.104 43.7459 101.951 43.201 100.043 42.1111C98.1361 41.0213 96.6287 39.4436 95.5213 37.3782C94.4139 35.3127 93.8601 32.8122 93.8601 29.8766C93.8601 26.9322 94.4139 24.4273 95.5213 22.3619C96.6287 20.2964 98.1361 18.7231 100.043 17.6421C101.951 16.5522 104.104 16.0073 106.503 16.0073C108.885 16.0073 111.03 16.5522 112.937 17.6421C114.853 18.7231 116.365 20.2964 117.472 22.3619C118.588 24.4273 119.147 26.9322 119.147 29.8766ZM113.359 29.8766C113.359 27.9694 113.073 26.3609 112.502 25.0513C111.939 23.7418 111.144 22.7486 110.116 22.0718C109.087 21.3951 107.883 21.0567 106.503 21.0567C105.123 21.0567 103.919 21.3951 102.891 22.0718C101.863 22.7486 101.063 23.7418 100.492 25.0513C99.9291 26.3609 99.6478 27.9694 99.6478 29.8766C99.6478 31.7839 99.9291 33.3923 100.492 34.7019C101.063 36.0114 101.863 37.0046 102.891 37.6814C103.919 38.3581 105.123 38.6965 106.503 38.6965C107.883 38.6965 109.087 38.3581 110.116 37.6814C111.144 37.0046 111.939 36.0114 112.502 34.7019C113.073 33.3923 113.359 31.7839 113.359 29.8766ZM122.076 43.3768V16.3764H127.784V28.2814H128.14L137.857 16.3764H144.699L134.68 28.4659L144.818 43.3768H137.989L130.593 32.276L127.784 35.7038V43.3768H122.076ZM169.662 29.8766C169.662 32.821 169.104 35.3259 167.988 37.3913C166.88 39.4568 165.368 41.0345 163.452 42.1243C161.545 43.2054 159.4 43.7459 157.019 43.7459C154.619 43.7459 152.466 43.201 150.559 42.1111C148.651 41.0213 147.144 39.4436 146.037 37.3782C144.929 35.3127 144.375 32.8122 144.375 29.8766C144.375 26.9322 144.929 24.4273 146.037 22.3619C147.144 20.2964 148.651 18.7231 150.559 17.6421C152.466 16.5522 154.619 16.0073 157.019 16.0073C159.4 16.0073 161.545 16.5522 163.452 17.6421C165.368 18.7231 166.88 20.2964 167.988 22.3619C169.104 24.4273 169.662 26.9322 169.662 29.8766ZM163.874 29.8766C163.874 27.9694 163.589 26.3609 163.017 25.0513C162.455 23.7418 161.659 22.7486 160.631 22.0718C159.603 21.3951 158.399 21.0567 157.019 21.0567C155.639 21.0567 154.435 21.3951 153.406 22.0718C152.378 22.7486 151.578 23.7418 151.007 25.0513C150.444 26.3609 150.163 27.9694 150.163 29.8766C150.163 31.7839 150.444 33.3923 151.007 34.7019C151.578 36.0114 152.378 37.0046 153.406 37.6814C154.435 38.3581 155.639 38.6965 157.019 38.6965C158.399 38.6965 159.603 38.3581 160.631 37.6814C161.659 37.0046 162.455 36.0114 163.017 34.7019C163.589 33.3923 163.874 31.7839 163.874 29.8766ZM172.591 43.3768V16.3764H178.3V27.5167H189.888V16.3764H195.584V43.3768H189.888V32.2233H178.3V43.3768H172.591ZM203.645 43.3768H197.527L206.848 16.3764H214.205L223.513 43.3768H217.395L210.632 22.5464H210.421L203.645 43.3768ZM203.262 32.7638H217.712V37.22H203.262V32.7638Z" fill="#172230"/>
</svg>
