<svg width="180" height="180" viewBox="0 0 180 180" fill="none" xmlns="http://www.w3.org/2000/svg">
<g clip-path="url(#clip0_202_1865)">
<path fill-rule="evenodd" clip-rule="evenodd" d="M4 0C1.79086 0 0 1.79086 0 4V176C0 178.209 1.79086 180 4 180H176C178.209 180 180 178.209 180 176V4C180 1.79086 178.209 0 176 0H4ZM61.3119 31.5899C66.2881 31.5899 66.2881 34.9786 66.2881 34.9786V61.1335H56.3357V34.8587C56.3357 34.8587 56.3357 31.5899 61.3119 31.5899ZM90.2583 71.551C90.2583 71.551 114.229 71.9152 159.084 61.1362L158.463 68.4022C158.463 68.4022 145.277 74.0573 124.173 77.6388V146.991C124.173 146.991 122.375 152.68 118.973 152.68C115.57 152.68 114.229 151.592 114.229 151.592V79.0697C106.275 80.0246 98.2704 80.5053 90.2583 80.5092C82.2434 80.5071 74.2358 80.0278 66.2786 79.074V151.614C66.2786 151.614 64.9505 152.702 61.5353 152.702C58.1201 152.702 56.3349 147.012 56.3349 147.012V77.656C35.2314 74.0744 22.0449 68.4193 22.0449 68.4193L21.4326 61.1362C66.2872 71.9152 90.2583 71.551 90.2583 71.551ZM124.185 34.8587C124.185 34.8587 124.185 31.5899 119.208 31.5899C114.232 31.5899 114.232 34.9786 114.232 34.9786V61.1121H124.185V34.8587Z" fill="#0091E6"/>
</g>
<defs>
<clipPath id="clip0_202_1865">
<rect width="180" height="180" fill="white"/>
</clipPath>
</defs>
</svg>
