<svg width="30" height="30" viewBox="0 0 30 30" fill="none" xmlns="http://www.w3.org/2000/svg">
<g clip-path="url(#clip0_1244_822)">
<rect width="30" height="30" fill="white"/>
<path d="M29.333 0C29.7012 0 30 0.298802 30 0.666992V29.333C30 29.7012 29.7012 30 29.333 30H0.666992C0.298802 30 0 29.7012 0 29.333V0.666992C0 0.298802 0.298802 0 0.666992 0H29.333ZM26.5146 10.1895C19.066 11.9794 15.0719 11.9252 15.043 11.9248C15.0016 11.9254 11.0091 11.9766 3.57227 10.1895L3.6748 11.4033C3.71386 11.42 5.90399 12.3508 9.38965 12.9424V24.502C9.39581 24.5214 9.6928 25.4499 10.2559 25.4502C10.8249 25.4502 11.0469 25.2686 11.0469 25.2686V13.1787C12.3729 13.3376 13.7074 13.4176 15.043 13.418C16.3781 13.4173 17.7125 13.3368 19.0381 13.1777V25.2646C19.0381 25.2646 19.2621 25.4463 19.8291 25.4463C20.3934 25.446 20.6926 24.5067 20.6953 24.498V12.9395C24.2124 12.3425 26.4111 11.4004 26.4111 11.4004L26.5146 10.1895ZM10.2188 5.26465C9.40132 5.26471 9.38981 5.79451 9.38965 5.80957V10.1885H11.0479V5.8291C11.0475 5.80806 11.0319 5.26472 10.2188 5.26465ZM19.8682 5.26465C19.055 5.26471 19.0394 5.80803 19.0391 5.8291V10.1846H20.6973V5.80957C20.6971 5.79459 20.6856 5.26472 19.8682 5.26465Z" fill="#0074E8"/>
</g>
<defs>
<clipPath id="clip0_1244_822">
<rect width="30" height="30" fill="white"/>
</clipPath>
</defs>
</svg>
